<svg xmlns="http://www.w3.org/2000/svg" viewBox="0 0 1924 1084">
  <defs>
    <style>
      .cls-1 {
        fill: none;
        stroke: #000;
        stroke-miterlimit: 1;
        stroke-width: 4px;
      }
    </style>
  </defs>
  <g id="Layer_3" data-name="Layer 3">
    <path class="cls-1" d="M967.86,1080c-1.65-53.67-3.6-119.22-4.5-145.72-1.5-47.55-3.15-101.56-6-193.1-.75-26.15-2-59.95-2.4-75.24l-.9-27.51h15.45c58.5,0,133,20.21,196.81,53.33l11.7,5.94,29.55-13.25c48-21.39,73.8-30.74,105.3-37.87,14.7-3.23,21.9-3.9,49.5-3.9,32.85,0,41,1,64.35,8,21.45,6.28,54.15,22.59,73.2,36.34l7.95,5.61,9.3-8c53.56-45.85,151.51-60.63,299-45.17,24,2.38,92.26,11.72,100.21,13.59s3.9-3.4-21.45-27.52c-160.51-153.19-289.06-250.84-406.52-308.59-134.25-65.89-318-120.07-520.51-153.36-15.3-2.55-27.9-4.75-28.05-4.75-.15-.17-1.35-32.78-2.7-72.18-2.55-79.15-2.7-80-12-84.41-5.7-2.72-9-2.89-13.5-.85-4.2,2-8.1,7.3-9.6,13.08-.6,2.71-.3,31.59.75,64.36s2,63.69,2,68.79l.15,9.51-31.35,3.73C708.05,181.23,566.9,222,442.1,285.34c-25.06,12.74-96.16,53.33-138,78.81-136.5,83.05-228.3,159.3-291.46,242C2.13,619.75-2.22,628.24,1.08,628.24c.45,0,9.15-2.72,19.2-6.11,10-3.23,30-8.67,44.4-11.89,97.66-22.25,174.46-9.51,239.26,39.57l14.7,11.38,19.8-4.76c87.15-20.72,142.81-27.85,201.91-26,67.8,2.21,123.75,16.3,180.6,45.34l16.95,8.66,14.55-5.94c41.7-16.81,90.61-30.06,131.41-35.66,33.75-4.59,36-4.76,36-2,0,1.19.6,21.4,1.5,44.49.75,23.27,2.1,65.56,3,94.09s2.25,72.86,3,98.51,2.22,66.67,6.27,200.67Z" transform="translate(2 2)"/>
  </g>
</svg>
