<svg xmlns="http://www.w3.org/2000/svg" viewBox="0 0 775.77 884.46">
  <defs>
    <style>
      .cls-1 {
        fill: #fff;
      }

      .cls-1, .cls-2, .cls-3, .cls-4, .cls-5, .cls-6 {
        stroke: #000;
      }

      .cls-1, .cls-2, .cls-6 {
        stroke-miterlimit: 10;
      }

      .cls-1, .cls-2 {
        stroke-width: 4px;
      }

      .cls-2, .cls-3, .cls-4, .cls-5 {
        fill: none;
      }

      .cls-3 {
        stroke-width: 5px;
      }

      .cls-3, .cls-4, .cls-5 {
        fill-rule: evenodd;
      }

      .cls-4 {
        stroke-width: 3.75px;
      }

      .cls-5 {
        stroke-width: 2.5px;
      }
    </style>
  </defs>
  <g id="Layer_1" data-name="Layer 1">
    <path d="M1369.55,200c13.34,0,29.11.58,47.4,1.25,48,1.77,72,2.65,89.29,15.56s27.7,33.16,32.34,62.24c4.13,25.93,3,55.46,2,81.53-1.88,49.43-3.81,100.54-41,131.1-24.07,19.75-53.86,23.35-69.87,25.28a226.24,226.24,0,0,1-27.74,2c-22.9,0-42.39-4.87-58-14.48-37.74-23.32-45.15-70.32-53.73-124.73-4.81-30.53-10.27-65.14-9.3-95.37,1.08-33.88,10.06-57.06,27.45-70.89,12.36-9.81,28.92-13.46,61.13-13.46h0m0-4c-30.38,0-49.29,2.95-63.61,14.33-41.26,32.78-29.46,107.6-19.62,170,8.72,55.34,16.27,103.23,55.58,127.51,19.62,12.12,41.84,15.08,60,15.08a228.27,228.27,0,0,0,28.22-2c16.8-2,47-5.66,71.93-26.16,38.63-31.7,40.6-83.84,42.5-134,2-53.52,4.43-116.93-36-147.13-18.26-13.65-42.69-14.55-91.54-16.34-18.49-.68-34.14-1.26-47.55-1.26Z" transform="translate(-827.59 -196)"/>
    <path class="cls-1" d="M1002,438" transform="translate(-827.59 -196)"/>
    <path class="cls-2" d="M1371.32,517.66c-1.9,7.15-38.91,138.74-140.58,166.74-49.32,13.58-91.54,0-91.55,0-33.89-10.9-55.41-31.53-65.38-42.5" transform="translate(-827.59 -196)"/>
    <g id="g2198">
      <path id="path14684" class="cls-3" d="M832.45,626.39c55.45,43.93,103.81,80,159.41,124.07,50.88-42.33,72.42-56.89,115.51-83.65,24.82,2,41.57-12.89,46.28-22.48,35.68-12,75.3-25.41,112.71-36-4.57-6.19-4-8.94-8.61-15.1-57.93-23.82-118.56-49.62-179.33-74.62C1002.39,550.43,925.64,587.09,832.45,626.39Z" transform="translate(-827.59 -196)"/>
      <path id="path14685" class="cls-4" d="M846.62,626.25,992.17,736.91c38.52-34.55,77.8-79.75,124.17-78.17-8.69-12.77-6-21.15-2.37-30.83-73.38-.07-90.65,43.85-134.88,72.68q5.38,15.58,10.84,31.43c-3-10.24-7.32-20.15-10.29-30.24-41-30.6-90.62-69.26-131.61-99.85C840.94,606.55,844.75,617.78,846.62,626.25Z" transform="translate(-827.59 -196)"/>
      <path id="path14686" class="cls-4" d="M1114.14,641.25c1.11-35.58,14.26-40,45.64-49.69,23.78-7.32,41.84-9.09,66.24-13.92,1.89,7.45,10.84,16.36,19.52,25.49-22.88,4.8-42.65,6.37-67.86,14.34-19.29,1.48-29.87,15.74-36,30.13C1130.93,624.75,1124.94,641,1114.14,641.25Z" transform="translate(-827.59 -196)"/>
      <path id="path14687" class="cls-5" d="M983.75,562.87l125.75,64.62c-74.29,3.18-93.93,51.38-130.92,73.52l-131-99.33c27.77-17.87,39.72-42.18,84.28-50.66C948.6,547.84,966.57,556.16,983.75,562.87Z" transform="translate(-827.59 -196)"/>
      <path id="path950" class="cls-5" d="M1114.21,628.15c3.44-36.12,47-37.48,110.55-52.13l-144.29-55.38c-45.89,14.37-90.7-.85-102.32,38.77Z" transform="translate(-827.59 -196)"/>
    </g>
    <path class="cls-2" d="M1502.1,498c25.25,27.77,60.13,73.4,81.74,137.32,8,23.79,21.59,71.87,16.34,189.62a1363.63,1363.63,0,0,1-36,255" transform="translate(-827.59 -196)"/>
    <circle id="eye" class="cls-6" cx="507.77" cy="148.38" r="9.81"/>
  </g>
</svg>
